G04 DipTrace 3.0.0.2*
G04 Bottom.gbr*
%MOIN*%
G04 #@! TF.FileFunction,Copper,L2,Bot*
G04 #@! TF.Part,Single*
G04 #@! TA.AperFunction,Conductor*
%ADD14C,0.012992*%
%ADD16C,0.02*%
G04 #@! TA.AperFunction,CopperBalancing*
%ADD17C,0.025*%
G04 #@! TA.AperFunction,ViaPad*
%ADD41C,0.04*%
%FSLAX26Y26*%
G04*
G70*
G90*
G75*
G01*
G04 Bottom*
%LPD*%
X1237452Y1112452D2*
D14*
Y999952D1*
X1231201Y993701D1*
X1331201Y1106201D2*
Y1024952D1*
X1299950Y993701D1*
X1731201Y1262452D2*
Y1287452D1*
X1774950Y1331201D1*
X1824952D1*
X1918701Y1424950D1*
Y1581201D1*
X1993701Y1656201D1*
X2062452D2*
X2043701D1*
X1949950Y1562450D1*
Y1418701D1*
X1843701Y1312452D1*
X1812453D1*
X1774952Y1274950D1*
X1731201D1*
Y1262452D1*
X1849952Y1099950D2*
X1999952Y1249950D1*
X2149655D1*
X624951Y1206201D2*
D16*
Y931201D1*
X568701Y874951D1*
X1465748Y993701D2*
D14*
Y1115748D1*
X1768701Y1418701D1*
D41*
X1849952Y1099950D3*
X2149655Y1249950D3*
X624951Y1206201D3*
X568701Y874951D3*
X1465748Y993701D3*
X1768701Y1418701D3*
X662452Y868701D3*
X456201Y831201D3*
X631201Y1456201D3*
X674951Y1087451D3*
X781201Y1249950D3*
X674950Y1668701D3*
X1274950Y599952D3*
X1368701Y837452D3*
X1764701Y1045701D3*
X1743701Y1199950D3*
X2049950Y1424950D3*
X1931201Y487450D3*
X862452Y624950D3*
Y1056201D3*
X1568701Y887452D3*
X1099950Y1318701D3*
X1337452Y1568701D3*
X1549950Y1549950D3*
X1274950Y1756201D3*
X1237452Y1112452D3*
X1331201Y1106201D3*
X1231201Y993701D3*
X1299950D3*
X1731201Y1262452D3*
X1774950Y1331201D3*
X1993701Y1656201D3*
X2062452D3*
X1581201Y1312452D3*
X1431201Y1268701D3*
X434701Y1955332D2*
D17*
X2327723D1*
X434701Y1930463D2*
X2327723D1*
X434701Y1905595D2*
X2327723D1*
X434701Y1880726D2*
X2327723D1*
X434701Y1855857D2*
X2327723D1*
X434701Y1830988D2*
X2327723D1*
X434701Y1806120D2*
X2327723D1*
X434701Y1781251D2*
X2327723D1*
X434701Y1756382D2*
X2327723D1*
X434701Y1731513D2*
X2327723D1*
X434701Y1706645D2*
X2327723D1*
X434701Y1681776D2*
X1952382D1*
X2103768D2*
X2327723D1*
X434701Y1656907D2*
X1944716D1*
X2111434D2*
X2327723D1*
X434701Y1632038D2*
X1920399D1*
X2104647D2*
X2327723D1*
X434701Y1607170D2*
X1895546D1*
X2043807D2*
X2327723D1*
X434701Y1582301D2*
X1883241D1*
X2018954D2*
X2327723D1*
X434701Y1557432D2*
X1883241D1*
X1994052D2*
X2327723D1*
X434701Y1532563D2*
X1883241D1*
X1985409D2*
X2327723D1*
X434701Y1507694D2*
X1883241D1*
X1985409D2*
X2327723D1*
X434701Y1482826D2*
X1883241D1*
X1985409D2*
X2327723D1*
X434701Y1457957D2*
X1741298D1*
X1796102D2*
X1883241D1*
X1985409D2*
X2327723D1*
X434701Y1433088D2*
X1722011D1*
X1815389D2*
X1877723D1*
X1985409D2*
X2327723D1*
X434701Y1408219D2*
X1709071D1*
X1816513D2*
X1852821D1*
X1983700D2*
X2327723D1*
X434701Y1383351D2*
X1684218D1*
X1801376D2*
X1827968D1*
X1963729D2*
X2327723D1*
X434701Y1358482D2*
X1659364D1*
X1938876D2*
X2327723D1*
X434701Y1333613D2*
X1634462D1*
X1913973D2*
X2327723D1*
X434701Y1308744D2*
X1609608D1*
X1889120D2*
X2327723D1*
X434701Y1283876D2*
X1584755D1*
X1862655D2*
X2115370D1*
X2183944D2*
X2327723D1*
X434701Y1259007D2*
X1559852D1*
X1658163D2*
X1682313D1*
X1808163D2*
X1959852D1*
X2197763D2*
X2327723D1*
X434701Y1234138D2*
X585292D1*
X664608D2*
X1534999D1*
X1633261D2*
X1691835D1*
X1770565D2*
X1934999D1*
X2195858D2*
X2327723D1*
X434701Y1209269D2*
X576063D1*
X673837D2*
X1510145D1*
X1608407D2*
X1910145D1*
X2008407D2*
X2124647D1*
X2174667D2*
X2327723D1*
X434701Y1184400D2*
X581386D1*
X668514D2*
X1485243D1*
X1583554D2*
X1885292D1*
X1983554D2*
X2327723D1*
X434701Y1159532D2*
X585975D1*
X663925D2*
X1460389D1*
X1558651D2*
X1860389D1*
X1958651D2*
X2327723D1*
X434701Y1134663D2*
X585975D1*
X663925D2*
X1194130D1*
X1280819D2*
X1291913D1*
X1370468D2*
X1436220D1*
X1533798D2*
X1816542D1*
X1933798D2*
X2327723D1*
X434701Y1109794D2*
X585975D1*
X663925D2*
X1188514D1*
X1380038D2*
X1430263D1*
X1508944D2*
X1801991D1*
X1908944D2*
X2327723D1*
X434701Y1084925D2*
X585975D1*
X663925D2*
X1197499D1*
X1277401D2*
X1287367D1*
X1375057D2*
X1430263D1*
X1501229D2*
X1803456D1*
X1896444D2*
X2327723D1*
X434701Y1060057D2*
X585975D1*
X663925D2*
X1201991D1*
X1272909D2*
X1295741D1*
X1366659D2*
X1430263D1*
X1501229D2*
X1823573D1*
X1876327D2*
X2327723D1*
X434701Y1035188D2*
X585975D1*
X663925D2*
X1201991D1*
X1366659D2*
X1430263D1*
X1501229D2*
X2327723D1*
X434701Y1010319D2*
X585975D1*
X663925D2*
X1185292D1*
X1363241D2*
X1419813D1*
X1511679D2*
X2327723D1*
X434701Y985450D2*
X585975D1*
X663925D2*
X1182948D1*
X1348202D2*
X1417518D1*
X1514022D2*
X2327723D1*
X434701Y960582D2*
X585975D1*
X663925D2*
X1196083D1*
X1335067D2*
X1430604D1*
X1500888D2*
X2327723D1*
X434701Y935713D2*
X575380D1*
X663925D2*
X2327723D1*
X434701Y910844D2*
X536659D1*
X657723D2*
X2327723D1*
X434701Y885975D2*
X521034D1*
X633798D2*
X2327723D1*
X434701Y861107D2*
X521815D1*
X615585D2*
X2327723D1*
X434701Y836238D2*
X540468D1*
X596932D2*
X2327723D1*
X434701Y811369D2*
X2327723D1*
X434701Y786500D2*
X2327723D1*
X434701Y761631D2*
X2327723D1*
X434701Y736763D2*
X2327723D1*
X434701Y711894D2*
X2327723D1*
X434701Y687025D2*
X2327723D1*
X434701Y662156D2*
X2327723D1*
X434701Y637288D2*
X2327723D1*
X434701Y612419D2*
X2327723D1*
X434701Y587550D2*
X2327723D1*
X434701Y562681D2*
X2327723D1*
X434701Y537813D2*
X2327723D1*
X434701Y512944D2*
X2327723D1*
X434701Y488075D2*
X2327723D1*
X434701Y463206D2*
X2327723D1*
X434701Y438337D2*
X2327723D1*
X1283800Y1108804D2*
X1282659Y1101598D1*
X1280405Y1094660D1*
X1277093Y1088160D1*
X1272805Y1082257D1*
X1270433Y1079692D1*
X1270440Y1029590D1*
X1275658Y1033342D1*
X1282159Y1036654D1*
X1289097Y1038909D1*
X1296303Y1040050D1*
X1298226Y1040125D1*
X1298213Y1073438D1*
X1293588Y1078874D1*
X1289776Y1085094D1*
X1286984Y1091834D1*
X1285281Y1098928D1*
X1284709Y1106201D1*
X1285281Y1113474D1*
X1286984Y1120568D1*
X1289776Y1127308D1*
X1293588Y1133528D1*
X1298326Y1139076D1*
X1303874Y1143814D1*
X1310094Y1147626D1*
X1316834Y1150418D1*
X1323928Y1152121D1*
X1331201Y1152693D1*
X1338474Y1152121D1*
X1345568Y1150418D1*
X1352308Y1147626D1*
X1358528Y1143814D1*
X1364076Y1139076D1*
X1368814Y1133528D1*
X1372626Y1127308D1*
X1375418Y1120568D1*
X1377121Y1113474D1*
X1377693Y1106201D1*
X1377121Y1098928D1*
X1375418Y1091834D1*
X1372626Y1085094D1*
X1368814Y1078874D1*
X1364182Y1073441D1*
X1364088Y1022363D1*
X1362575Y1014758D1*
X1359328Y1007715D1*
X1354527Y1001625D1*
X1354282Y1001399D1*
X1346413Y993512D1*
X1345870Y986428D1*
X1344167Y979334D1*
X1341375Y972594D1*
X1337563Y966374D1*
X1332825Y960826D1*
X1327278Y956088D1*
X1321057Y952276D1*
X1314317Y949484D1*
X1307223Y947781D1*
X1299950Y947209D1*
X1292677Y947781D1*
X1285583Y949484D1*
X1278843Y952276D1*
X1272623Y956088D1*
X1267075Y960826D1*
X1265594Y962428D1*
X1261395Y958348D1*
X1255493Y954060D1*
X1248993Y950748D1*
X1242054Y948493D1*
X1234849Y947352D1*
X1227553D1*
X1220348Y948493D1*
X1213409Y950748D1*
X1206909Y954060D1*
X1201007Y958348D1*
X1195848Y963507D1*
X1191560Y969409D1*
X1188248Y975909D1*
X1185993Y982848D1*
X1184852Y990053D1*
Y997349D1*
X1185993Y1004554D1*
X1188248Y1011493D1*
X1191560Y1017993D1*
X1195848Y1023895D1*
X1201007Y1029054D1*
X1204478Y1031718D1*
X1204463Y1079688D1*
X1199839Y1085124D1*
X1196027Y1091345D1*
X1193235Y1098085D1*
X1191532Y1105179D1*
X1190960Y1112452D1*
X1191532Y1119725D1*
X1193235Y1126819D1*
X1196027Y1133559D1*
X1199839Y1139779D1*
X1204577Y1145327D1*
X1210124Y1150065D1*
X1216345Y1153876D1*
X1223085Y1156668D1*
X1230179Y1158371D1*
X1237452Y1158944D1*
X1244725Y1158371D1*
X1251819Y1156668D1*
X1258559Y1153876D1*
X1264779Y1150065D1*
X1270327Y1145327D1*
X1275065Y1139779D1*
X1278876Y1133559D1*
X1281668Y1126819D1*
X1283371Y1119725D1*
X1283944Y1112452D1*
X1283800Y1108804D1*
X1772918Y1241979D2*
X1768814Y1235124D1*
X1764076Y1229577D1*
X1758528Y1224839D1*
X1752308Y1221027D1*
X1745568Y1218235D1*
X1738474Y1216532D1*
X1731201Y1215960D1*
X1723928Y1216532D1*
X1716834Y1218235D1*
X1710094Y1221027D1*
X1703874Y1224839D1*
X1698326Y1229577D1*
X1693588Y1235124D1*
X1689776Y1241345D1*
X1686984Y1248085D1*
X1685281Y1255179D1*
X1684709Y1262452D1*
X1685281Y1269725D1*
X1686984Y1276819D1*
X1689776Y1283559D1*
X1693588Y1289779D1*
X1699447Y1296362D1*
X1701808Y1302428D1*
X1706117Y1308876D1*
X1728487Y1331390D1*
X1703639Y1306986D1*
X1498723Y1102071D1*
X1498736Y1026442D1*
X1503361Y1021028D1*
X1507173Y1014808D1*
X1509965Y1008068D1*
X1511668Y1000974D1*
X1512240Y993701D1*
X1511668Y986428D1*
X1509965Y979334D1*
X1507173Y972594D1*
X1503361Y966374D1*
X1498623Y960826D1*
X1493076Y956088D1*
X1486855Y952276D1*
X1480115Y949484D1*
X1473021Y947781D1*
X1465748Y947209D1*
X1458475Y947781D1*
X1451381Y949484D1*
X1444641Y952276D1*
X1438421Y956088D1*
X1432873Y960826D1*
X1428135Y966374D1*
X1424323Y972594D1*
X1421532Y979334D1*
X1419829Y986428D1*
X1419256Y993701D1*
X1419829Y1000974D1*
X1421532Y1008068D1*
X1424323Y1014808D1*
X1428135Y1021028D1*
X1432767Y1026461D1*
X1432862Y1118336D1*
X1434375Y1125942D1*
X1437621Y1132985D1*
X1442422Y1139074D1*
X1442667Y1139301D1*
X1722192Y1418844D1*
X1722781Y1425974D1*
X1724484Y1433068D1*
X1727276Y1439808D1*
X1731088Y1446028D1*
X1735826Y1451576D1*
X1741374Y1456314D1*
X1747594Y1460126D1*
X1754334Y1462918D1*
X1761428Y1464621D1*
X1768701Y1465193D1*
X1775974Y1464621D1*
X1783068Y1462918D1*
X1789808Y1460126D1*
X1796028Y1456314D1*
X1801576Y1451576D1*
X1806314Y1446028D1*
X1810126Y1439808D1*
X1812918Y1433068D1*
X1814621Y1425974D1*
X1815193Y1418701D1*
X1814621Y1411428D1*
X1812918Y1404334D1*
X1810126Y1397594D1*
X1806314Y1391374D1*
X1801576Y1385826D1*
X1796028Y1381088D1*
X1789808Y1377276D1*
X1787179Y1376064D1*
X1796057Y1372626D1*
X1802278Y1368814D1*
X1807710Y1364182D1*
X1819303Y1372205D1*
X1885698Y1438600D1*
X1885814Y1583789D1*
X1887327Y1591395D1*
X1890574Y1598437D1*
X1895375Y1604527D1*
X1895620Y1604754D1*
X1947199Y1656352D1*
X1947781Y1663474D1*
X1949484Y1670568D1*
X1952276Y1677308D1*
X1956088Y1683528D1*
X1960826Y1689076D1*
X1966374Y1693814D1*
X1972594Y1697626D1*
X1979334Y1700418D1*
X1986428Y1702121D1*
X1993701Y1702693D1*
X2000974Y1702121D1*
X2008068Y1700418D1*
X2014808Y1697626D1*
X2021028Y1693814D1*
X2026576Y1689076D1*
X2028057Y1687474D1*
X2032257Y1691554D1*
X2038160Y1695842D1*
X2044660Y1699154D1*
X2051598Y1701409D1*
X2058804Y1702550D1*
X2066099D1*
X2073305Y1701409D1*
X2080243Y1699154D1*
X2086744Y1695842D1*
X2092646Y1691554D1*
X2097805Y1686395D1*
X2102093Y1680493D1*
X2105405Y1673993D1*
X2107659Y1667054D1*
X2108800Y1659849D1*
Y1652553D1*
X2107659Y1645348D1*
X2105405Y1638409D1*
X2102093Y1631909D1*
X2097805Y1626007D1*
X2092646Y1620848D1*
X2086744Y1616560D1*
X2080243Y1613248D1*
X2073305Y1610993D1*
X2066099Y1609852D1*
X2058804D1*
X2051598Y1610993D1*
X2046653Y1612512D1*
X1982955Y1548802D1*
X1982837Y1416113D1*
X1981324Y1408507D1*
X1978077Y1401465D1*
X1973277Y1395375D1*
X1973031Y1395148D1*
X1865125Y1287367D1*
X1858677Y1283059D1*
X1851402Y1280375D1*
X1843701Y1279463D1*
X1843367Y1279476D1*
X1826074Y1279463D1*
X1796376Y1249866D1*
X1789928Y1245558D1*
X1782653Y1242873D1*
X1774952Y1241962D1*
X1774618Y1241975D1*
X1772950Y1241962D1*
X1849793Y1146444D2*
X1978527Y1275035D1*
X1984975Y1279343D1*
X1992251Y1282027D1*
X1999952Y1282939D1*
X2000285Y1282926D1*
X2116895Y1282939D1*
X2122328Y1287563D1*
X2128548Y1291375D1*
X2135288Y1294167D1*
X2142382Y1295870D1*
X2149655Y1296442D1*
X2156928Y1295870D1*
X2164022Y1294167D1*
X2170762Y1291375D1*
X2176982Y1287563D1*
X2182530Y1282825D1*
X2187268Y1277278D1*
X2191080Y1271057D1*
X2193872Y1264317D1*
X2195575Y1257223D1*
X2196147Y1249950D1*
X2195575Y1242677D1*
X2193872Y1235583D1*
X2191080Y1228843D1*
X2187268Y1222623D1*
X2182530Y1217075D1*
X2176982Y1212337D1*
X2170762Y1208526D1*
X2164022Y1205734D1*
X2156928Y1204031D1*
X2149655Y1203458D1*
X2142382Y1204031D1*
X2135288Y1205734D1*
X2128548Y1208526D1*
X2122328Y1212337D1*
X2116895Y1216969D1*
X2013571Y1216962D1*
X1896461Y1099808D1*
X1895871Y1092677D1*
X1894168Y1085583D1*
X1891376Y1078843D1*
X1887565Y1072623D1*
X1882827Y1067075D1*
X1877279Y1062337D1*
X1871059Y1058526D1*
X1864319Y1055734D1*
X1857225Y1054031D1*
X1849952Y1053458D1*
X1842679Y1054031D1*
X1835585Y1055734D1*
X1828845Y1058526D1*
X1822624Y1062337D1*
X1817077Y1067075D1*
X1812339Y1072623D1*
X1808527Y1078843D1*
X1805735Y1085583D1*
X1804032Y1092677D1*
X1803460Y1099950D1*
X1804032Y1107223D1*
X1805735Y1114317D1*
X1808527Y1121057D1*
X1812339Y1127278D1*
X1817077Y1132825D1*
X1822624Y1137563D1*
X1828845Y1141375D1*
X1835585Y1144167D1*
X1842679Y1145870D1*
X1849795Y1146436D1*
X661443Y1177441D2*
X661331Y928338D1*
X660435Y922682D1*
X658665Y917236D1*
X656066Y912134D1*
X652700Y907501D1*
X614882Y869524D1*
X612918Y860584D1*
X610126Y853844D1*
X606314Y847624D1*
X601576Y842076D1*
X596028Y837338D1*
X589808Y833526D1*
X583068Y830734D1*
X575974Y829031D1*
X568701Y828459D1*
X561428Y829031D1*
X554334Y830734D1*
X547594Y833526D1*
X541374Y837338D1*
X535826Y842076D1*
X531088Y847624D1*
X527276Y853844D1*
X524484Y860584D1*
X522781Y867678D1*
X522209Y874951D1*
X522781Y882224D1*
X524484Y889318D1*
X527276Y896058D1*
X531088Y902278D1*
X535826Y907826D1*
X541374Y912564D1*
X547594Y916376D1*
X554334Y919168D1*
X561428Y920871D1*
X563255Y921087D1*
X588438Y946296D1*
X588459Y1177441D1*
X585310Y1181909D1*
X581998Y1188409D1*
X579743Y1195348D1*
X578602Y1202553D1*
Y1209849D1*
X579743Y1217054D1*
X581998Y1223993D1*
X585310Y1230493D1*
X589598Y1236395D1*
X594757Y1241554D1*
X600659Y1245842D1*
X607159Y1249154D1*
X614098Y1251409D1*
X621303Y1252550D1*
X628599D1*
X635804Y1251409D1*
X642743Y1249154D1*
X649243Y1245842D1*
X655145Y1241554D1*
X660304Y1236395D1*
X664592Y1230493D1*
X667904Y1223993D1*
X670159Y1217054D1*
X671300Y1209849D1*
Y1202553D1*
X670159Y1195348D1*
X667904Y1188409D1*
X664592Y1181909D1*
X661425Y1177429D1*
X2317701Y1980201D2*
X432201D1*
Y432201D1*
X2330201D1*
Y1980201D1*
X2317701D1*
M02*
