M48
INCH
T01C0.0191
%
T01
X+006625Y+008687
X+005687Y+008750
X+004562Y+008312
X+006750Y+010875
X+006250Y+012062
X+007812Y+012500
X+008625Y+010562
X+011000Y+013187
X+012375Y+011125
X+013312Y+011062
X+013000Y+009937
X+012312Y+009937
X+013687Y+008375
X+014657Y+009937
X+015687Y+008875
X+017647Y+010457
X+018500Y+011000
X+017437Y+012000
X+017312Y+012625
X+017750Y+013312
X+017687Y+014187
X+015812Y+013125
X+014312Y+012687
X+015500Y+015500
X+013375Y+015687
X+012750Y+017562
X+006750Y+016687
X+006312Y+014562
X+008625Y+006250
X+012750Y+006000
X+019312Y+004875
X+021497Y+012500
X+020500Y+014250
X+020625Y+016562
X+019937Y+016562
T00
M30
