G04 DipTrace 3.0.0.2*
G04 TopAssy.gbr*
%MOIN*%
G04 #@! TF.FileFunction,Drawing,Top*
G04 #@! TF.Part,Single*
%ADD10C,0.009843*%
%ADD82C,0.003088*%
%FSLAX26Y26*%
G04*
G70*
G90*
G75*
G01*
G04 TopAssy*
%LPD*%
X395734Y1333268D2*
D10*
Y939567D1*
X385604Y1077961D2*
D82*
Y1090385D1*
X365508D1*
Y1077961D1*
X376032Y1090385D2*
Y1082736D1*
X385604Y1071785D2*
X365508D1*
Y1065086D1*
X366481Y1062212D1*
X368382Y1060289D1*
X370306Y1059338D1*
X373158Y1058388D1*
X377955D1*
X380829Y1059338D1*
X382730Y1060289D1*
X384654Y1062212D1*
X385604Y1065086D1*
Y1071785D1*
X380829Y1037864D2*
X382730Y1038815D1*
X384654Y1040738D1*
X385604Y1042639D1*
Y1046464D1*
X384654Y1048387D1*
X382730Y1050289D1*
X380829Y1051261D1*
X377955Y1052212D1*
X373158D1*
X370306Y1051261D1*
X368382Y1050289D1*
X366481Y1048387D1*
X365508Y1046464D1*
Y1042639D1*
X366481Y1040738D1*
X368382Y1038815D1*
X370306Y1037864D1*
X373158D1*
Y1042639D1*
X385604Y1019264D2*
Y1031688D1*
X365508D1*
Y1019264D1*
X376032Y1031688D2*
Y1024039D1*
X385203Y1215188D2*
X365107D1*
Y1206566D1*
X366080Y1203692D1*
X367030Y1202742D1*
X368931Y1201791D1*
X371805D1*
X373729Y1202742D1*
X374679Y1203692D1*
X375630Y1206566D1*
X376603Y1203692D1*
X377553Y1202742D1*
X379455Y1201791D1*
X381378D1*
X383279Y1202742D1*
X384252Y1203692D1*
X385203Y1206566D1*
Y1215188D1*
X375630D2*
Y1206566D1*
X385203Y1189867D2*
X384252Y1191791D1*
X382329Y1193692D1*
X380427Y1194665D1*
X377553Y1195615D1*
X372756D1*
X369904Y1194665D1*
X367981Y1193692D1*
X366080Y1191791D1*
X365107Y1189867D1*
Y1186043D1*
X366080Y1184142D1*
X367981Y1182218D1*
X369904Y1181268D1*
X372756Y1180317D1*
X377553D1*
X380427Y1181268D1*
X382329Y1182218D1*
X384252Y1184142D1*
X385203Y1186043D1*
Y1189867D1*
X365107Y1158821D2*
X385203Y1166492D1*
X365107Y1174141D1*
X371805Y1171267D2*
Y1161695D1*
X375630Y1152645D2*
Y1144045D1*
X376603Y1141171D1*
X377553Y1140198D1*
X379455Y1139247D1*
X381378D1*
X383279Y1140198D1*
X384252Y1141171D1*
X385203Y1144045D1*
Y1152645D1*
X365107D1*
X375630Y1145946D2*
X365107Y1139247D1*
X385203Y1133072D2*
X365107D1*
Y1126373D1*
X366080Y1123499D1*
X367981Y1121576D1*
X369904Y1120625D1*
X372756Y1119674D1*
X377553D1*
X380428Y1120625D1*
X382329Y1121576D1*
X384252Y1123499D1*
X385203Y1126373D1*
Y1133072D1*
M02*
