G04 DipTrace 3.0.0.2*
G04 TopMask.gbr*
%MOIN*%
G04 #@! TF.FileFunction,Soldermask,Top*
G04 #@! TF.Part,Single*
%AMOUTLINE1*
4,1,31,
0.016437,-0.029148,
0.016437,0.029148,
0.009475,0.028784,
0.006482,0.02831,
0.003556,0.027526,
0.000728,0.02644,
-0.001971,0.025065,
-0.004512,0.023415,
-0.006866,0.021509,
-0.009009,0.019366,
-0.010915,0.017012,
-0.012565,0.014471,
-0.01394,0.011772,
-0.015026,0.008944,
-0.01581,0.006018,
-0.016284,0.003025,
-0.016442,0.0,
-0.016284,-0.003025,
-0.01581,-0.006018,
-0.015026,-0.008944,
-0.01394,-0.011772,
-0.012565,-0.014471,
-0.010915,-0.017012,
-0.009009,-0.019366,
-0.006866,-0.021509,
-0.004512,-0.023415,
-0.001971,-0.025065,
0.000728,-0.02644,
0.003556,-0.027526,
0.006482,-0.02831,
0.009475,-0.028784,
0.016437,-0.029148,
0*%
%AMOUTLINE4*
4,1,31,
-0.016437,0.029148,
-0.016437,-0.029148,
-0.009475,-0.028784,
-0.006482,-0.02831,
-0.003556,-0.027526,
-0.000728,-0.02644,
0.001971,-0.025065,
0.004512,-0.023415,
0.006866,-0.021509,
0.009009,-0.019366,
0.010915,-0.017012,
0.012565,-0.014471,
0.01394,-0.011772,
0.015026,-0.008944,
0.01581,-0.006018,
0.016284,-0.003025,
0.016442,0.0,
0.016284,0.003025,
0.01581,0.006018,
0.015026,0.008944,
0.01394,0.011772,
0.012565,0.014471,
0.010915,0.017012,
0.009009,0.019366,
0.006866,0.021509,
0.004512,0.023415,
0.001971,0.025065,
-0.000728,0.02644,
-0.003556,0.027526,
-0.006482,0.02831,
-0.009475,0.028784,
-0.016437,0.029148,
0*%
%ADD46R,0.086614X0.224409*%
%ADD48R,0.031496X0.086614*%
%ADD50R,0.135827X0.09252*%
%ADD52R,0.045276X0.09252*%
%ADD54R,0.019685X0.070866*%
%ADD56R,0.070866X0.019685*%
%ADD58R,0.059055X0.066929*%
%ADD60R,0.066929X0.059055*%
%ADD62R,0.055118X0.064961*%
%ADD64R,0.082677X0.082677*%
%ADD66R,0.082677X0.07874*%
%ADD68R,0.070866X0.090551*%
%ADD70R,0.061024X0.023622*%
%ADD72R,0.070866X0.07874*%
%ADD74R,0.047244X0.051181*%
%ADD76R,0.07874X0.070866*%
%ADD78R,0.051181X0.047244*%
%ADD84OUTLINE1*%
%ADD87OUTLINE4*%
%FSLAX26Y26*%
G04*
G70*
G90*
G75*
G01*
G04 TopMask*
%LPD*%
D78*
X568701Y818701D3*
X635630D3*
X766879D3*
X699950D3*
D76*
X1468701Y1443701D3*
Y1553937D3*
D74*
X706202Y1468701D3*
Y1535630D3*
X674952Y1837450D3*
Y1770521D3*
D72*
X987452Y699952D3*
X877215D3*
X498771Y1532037D3*
X609007D3*
D78*
X987450Y618700D3*
X920521D3*
X505021Y1450788D3*
X571950D3*
X993701Y1043701D3*
X926772D3*
X1643701Y1046701D3*
X1710630D3*
D74*
X1149950Y1443701D3*
Y1510630D3*
X1324950Y1443701D3*
Y1510630D3*
X1243701Y718701D3*
Y651772D3*
D78*
X1506201Y843701D3*
X1573130D3*
X1643701Y1149950D3*
X1710630D3*
X2087452Y487452D3*
X2020523D3*
D70*
X558023Y1187599D3*
Y1162008D3*
Y1136418D3*
Y1110827D3*
Y1085236D3*
D68*
X553101Y1258465D3*
Y1014370D3*
D66*
X452708Y1286024D3*
Y986811D3*
D64*
Y1183662D3*
Y1089173D3*
D62*
X924950Y787450D3*
X991879D3*
X555020Y1638288D3*
X488091D3*
D60*
X449952Y768701D3*
Y693898D3*
D74*
Y518701D3*
Y585630D3*
D78*
X918701Y968701D3*
X985630D3*
X837452Y1224950D3*
X904381D3*
D74*
X1643701Y712452D3*
Y779381D3*
D78*
X1656201Y856201D3*
X1723130D3*
X1122452Y1682201D3*
X1055523D3*
X1113452Y1775201D3*
X1046523D3*
D74*
X1474950Y1699952D3*
Y1766881D3*
X1412452Y1762450D3*
Y1695521D3*
D78*
X2049950Y1493701D3*
X1983021D3*
X2181201Y1506201D3*
X2248130D3*
D58*
X1499950Y711450D3*
X1574753D3*
X1499950Y781200D3*
X1574753D3*
D56*
X1093701Y1268701D3*
Y1249016D3*
Y1229331D3*
Y1209646D3*
Y1189961D3*
Y1170276D3*
Y1150591D3*
Y1130906D3*
Y1111221D3*
Y1091536D3*
Y1071851D3*
Y1052166D3*
Y1032481D3*
Y1012795D3*
Y993110D3*
Y973425D3*
D54*
X1170473Y896654D3*
X1190158D3*
X1209843D3*
X1229528D3*
X1249213D3*
X1268898D3*
X1288583D3*
X1308268D3*
X1327953D3*
X1347638D3*
X1367323D3*
X1387008D3*
X1406693D3*
X1426378D3*
X1446063D3*
X1465748D3*
D56*
X1542520Y973425D3*
Y993110D3*
Y1012795D3*
Y1032481D3*
Y1052166D3*
Y1071851D3*
Y1091536D3*
Y1111221D3*
Y1130906D3*
Y1150591D3*
Y1170276D3*
Y1189961D3*
Y1209646D3*
Y1229331D3*
Y1249016D3*
Y1268701D3*
D54*
X1465748Y1345473D3*
X1446063D3*
X1426378D3*
X1406693D3*
X1387008D3*
X1367323D3*
X1347638D3*
X1327953D3*
X1308268D3*
X1288583D3*
X1268898D3*
X1249213D3*
X1229528D3*
X1209843D3*
X1190158D3*
X1170473D3*
X2287450Y1324950D3*
X2267765D3*
X2248080D3*
X2228395D3*
X2208710D3*
X2189025D3*
X2169340D3*
X2149655D3*
X2129970D3*
X2110285D3*
X2090600D3*
X2070915D3*
X2051230D3*
X2031545D3*
X2011860D3*
X1992175D3*
X1972490D3*
X1952805D3*
X1933120D3*
X1913435D3*
X1893750D3*
X1874065D3*
X1854379D3*
X1834694D3*
Y561171D3*
X1854379D3*
X1874065D3*
X1893750D3*
X1913435D3*
X1933120D3*
X1952805D3*
X1972490D3*
X1992175D3*
X2011860D3*
X2031545D3*
X2051230D3*
X2070915D3*
X2090600D3*
X2110285D3*
X2129970D3*
X2149655D3*
X2169340D3*
X2189025D3*
X2208710D3*
X2228395D3*
X2248080D3*
X2267765D3*
X2287450D3*
D52*
X749950Y737450D3*
X659399D3*
X568848D3*
D50*
X659399Y509104D3*
D48*
X1184701Y1646201D3*
X1234701D3*
X1284701D3*
X1334701D3*
Y1858799D3*
X1284701D3*
X1234701D3*
X1184701D3*
D84*
X1774952Y1487450D3*
D87*
X1819952D3*
D46*
X843701Y1842717D3*
Y1468701D3*
M02*
